<svg xmlns="http://www.w3.org/2000/svg" viewBox="0 0 32 32"><path d="M27.88,25.13s0,0,0,0a14.88,14.88,0,0,0,0-18.18s0,0,0,0l-.07-.08c-.31-.4-.64-.78-1-1.14l-.12-.13A14.32,14.32,0,0,0,25.5,4.4l-.27-.2c-.32-.25-.64-.49-1-.71s-.41-.26-.62-.38-.47-.28-.72-.41l-.72-.35c-.23-.1-.47-.21-.72-.3s-.49-.19-.74-.27-.54-.17-.81-.24-.47-.13-.71-.18-.66-.13-1-.18-.39-.07-.59-.09a14.81,14.81,0,0,0-3.26,0c-.2,0-.39.06-.59.09s-.67.1-1,.18-.48.11-.71.18-.54.15-.81.24-.5.17-.74.27-.49.2-.72.3l-.72.35c-.25.13-.48.27-.72.41s-.42.24-.62.38-.66.46-1,.71l-.27.2A14.32,14.32,0,0,0,5.29,5.52l-.12.13c-.34.36-.67.74-1,1.14l-.07.08s0,0,0,0a14.88,14.88,0,0,0,0,18.18s0,0,0,0l.06.08c.32.4.65.78,1,1.15l.1.12A16.19,16.19,0,0,0,6.5,27.6l.25.18a12.2,12.2,0,0,0,1,.73c.2.14.41.26.62.38s.47.28.72.41l.72.35c.23.1.47.21.72.3s.49.19.74.27.54.17.81.24.47.13.71.18.66.13,1,.18.39.07.59.09a14.81,14.81,0,0,0,3.26,0c.2,0,.4-.06.59-.09s.67-.1,1-.18.48-.11.71-.18.54-.15.81-.24.5-.17.74-.27.49-.2.72-.3l.72-.35c.25-.13.48-.27.72-.41s.42-.24.62-.38a12.2,12.2,0,0,0,1-.73l.25-.18a16.19,16.19,0,0,0,1.22-1.12l.1-.12c.35-.37.68-.75,1-1.15Zm-1-2a15.6,15.6,0,0,0-1.73-1.05,21.78,21.78,0,0,0,0-12.12,15.6,15.6,0,0,0,1.73-1,12.93,12.93,0,0,1,0,14.22Zm-1.32,1.68c-.23.25-.47.49-.71.72l-.31.28-.64.52-.44.33-.57.37-.2.12A14.89,14.89,0,0,0,24.46,24a12.52,12.52,0,0,1,1.19.72Zm-17,1.85-.44-.33-.64-.52-.31-.28c-.24-.23-.48-.47-.71-.72l-.1-.11A12.52,12.52,0,0,1,7.54,24a14.89,14.89,0,0,0,1.78,3.17L9.12,27ZM8,16a20,20,0,0,1,.69-5.27A20.93,20.93,0,0,0,15,12V20a20.93,20.93,0,0,0-6.31,1.23A20,20,0,0,1,8,16ZM6.45,7.21c.23-.25.47-.49.71-.72l.31-.28.64-.52.44-.33L9.12,5l.2-.12A15.81,15.81,0,0,0,7.54,8a12.52,12.52,0,0,1-1.19-.72Zm17-1.85.44.33.64.52.31.28c.24.23.48.47.71.72l.1.11A12.52,12.52,0,0,1,24.46,8a15.81,15.81,0,0,0-1.78-3.17l.2.12ZM24,16a20,20,0,0,1-.69,5.27A20.93,20.93,0,0,0,17,20V12a20.93,20.93,0,0,0,6.31-1.23A20,20,0,0,1,24,16Zm-7,6a18.91,18.91,0,0,1,5.67,1.12c-1.26,3.09-3.3,5.25-5.67,5.74ZM17,10V3.11c2.37.49,4.41,2.65,5.67,5.74A18.91,18.91,0,0,1,17,10ZM15,3.11V10A18.91,18.91,0,0,1,9.33,8.85C10.59,5.76,12.63,3.6,15,3.11ZM15,22v6.86c-2.37-.49-4.41-2.65-5.67-5.74A18.91,18.91,0,0,1,15,22ZM5.13,8.89a15.6,15.6,0,0,0,1.73,1,21.78,21.78,0,0,0,0,12.12,15.6,15.6,0,0,0-1.73,1.05,12.93,12.93,0,0,1,0-14.22Z"/></svg>