<svg xmlns="http://www.w3.org/2000/svg" enable-background="new 0 0 512 512" viewBox="0 0 512 512"><path d="M265.12 64.32c1.226 0 2.453.053 3.626.267v-6.239c0-9.547-7.787-17.28-17.28-17.28H117.919c-9.547 0-17.28 7.733-17.28 17.28v6.774c2.24-.533 4.64-.8 7.04-.8H265.12V64.32zM393.653 172.266c0-10.27-7.128-18.861-16.705-21.251v-35.658c0-5.768 3.131-11.101 8.162-13.921 2.573-1.44 3.489-4.69 2.047-7.261-1.432-2.565-4.682-3.484-7.256-2.047-8.401 4.706-13.619 13.604-13.619 23.229v35.666c-9.565 2.4-16.681 10.983-16.681 21.244v34.134h44.054v-34.135H393.653z"/><path d="M444.427,322.454c8.469,0,17.712,1.393,26.133,4.374v-15.585c-24.476-5.408-42.852-27.245-42.852-53.325v-38.183H308.48L281.706,91.147c-1.654-7.787-8.586-13.493-16.587-13.493c-16.137,0.001,58.381-0.005-157.448,0.014c-10.013,0-18.493,7.505-19.724,17.466L72.423,222.676l-58.556,61.378c-8.96,9.44-13.866,21.706-13.866,34.667c0,10.095,2.979,20.115,9.12,28.799c8.272-57.365,57.952-102.08,118.133-102.08c66.252,0,119.414,54,119.414,119.414c0,1.387,0,2.773-0.107,4.16h124.587C384.299,341.113,412.468,322.454,444.427,322.454z M98.536,96.43c0.571-4.615,4.497-8.096,9.135-8.096h70.461V219.73H83.525L98.536,96.43z M298.773,272.96c0,4.907-4,8.906-8.96,8.906H252.16c-2.347,0-4.587-0.906-6.294-2.56c-5.834-5.774,21.133,20.916-57.054-56.468V88.32h76.308c2.933,0,5.546,2.133,6.133,5.013c2.814,13.524-10.194-48.992,27.52,132.267C298.773,227.069,298.773,275.774,298.773,272.96z"/><path d="M470.56 300.24v-60.667c0-10.933-8.96-19.84-19.893-19.84h-12.292v38.183C438.375 278.076 452.029 295.069 470.56 300.24zM127.239 317.13c-26.339 0-47.766 21.416-47.766 47.74 0 26.339 21.427 47.766 47.766 47.766s47.766-21.427 47.766-47.766C175.005 338.547 153.578 317.13 127.239 317.13z"/><path d="M127.253 258.773c-58.506 0-106.081 47.627-106.081 106.081 0 58.507 47.573 106.081 106.081 106.081s106.081-47.573 106.081-106.081C233.333 306.4 185.76 258.773 127.253 258.773zM127.239 423.302c-32.219 0-58.432-26.213-58.432-58.432 0-32.206 26.213-58.406 58.432-58.406s58.432 26.201 58.432 58.406C185.671 397.089 159.458 423.302 127.239 423.302zM444.427 335.787c-37.333 0-67.627 30.293-67.627 67.573s30.293 67.573 67.627 67.573c37.227 0 67.573-30.293 67.573-67.573S481.654 335.787 444.427 335.787zM444.406 438.378c-19.307 0-35.016-15.708-35.016-35.018s15.708-35.018 35.016-35.018c19.291 0 34.985 15.708 34.985 35.018C479.391 422.669 463.699 438.378 444.406 438.378z"/><path d="M444.406,379.008c-13.427,0-24.348,10.925-24.348,24.352s10.921,24.352,24.348,24.352c13.411,0,24.318-10.925,24.318-24.352C468.724,389.933,457.818,379.008,444.406,379.008z"/></svg>